<svg xmlns="http://www.w3.org/2000/svg" width="57.11" height="75.3" viewBox="0 0 57.11 75.3"><g id="bag"><g id="bag-2" data-name="bag"><path id="package" d="M.5.5H13V19.86a5,5,0,0,0,1.71,3.78l1.86,1.64a5,5,0,0,0,3.32,1.26H37.33a5,5,0,0,0,3.35-1.3l2.41-2.18a3.92,3.92,0,0,0,1.28-2.89V.5H56.61V64.34a17.66,17.66,0,0,1-3.87,6,22.18,22.18,0,0,1-6.83,4.44H12.39a27,27,0,0,1-7.76-4.5A13.34,13.34,0,0,1,.5,62.2Z" fill="#b1dddc" stroke="#231f20" stroke-miterlimit="10"/><g id="lines"><path d="M17.32,51.76l1.64,1-3.72,7.07a.78.78,0,0,0,.15.91l1.72,1.9a1,1,0,0,0,.27.13L22,54.5l1.9,1.09-.75-6.27Z" fill="#3ad35d" stroke="#231f20" stroke-miterlimit="10" stroke-width="0.5"/><path d="M19.32,59.26h6v3.58H17.45s-.11,0-.1,0Z" fill="#17a03a" stroke="#231f20" stroke-miterlimit="10" stroke-width="0.5"/><path d="M36.6,43.41l-1.66,1L30.24,38a.77.77,0,0,0-.88-.28l-2.47.71s-.25.17-.24.19l5.42,7.81-1.81,1.22,6,2.1Z" fill="#3ad35d" stroke="#231f20" stroke-miterlimit="10" stroke-width="0.5"/><path d="M29,41.9l-2.65,5.38L23.12,45.7l3.48-7.07s.06-.08.07-.07Z" fill="#17a03a" stroke="#231f20" stroke-miterlimit="10" stroke-width="0.5"/><path d="M33.88,64.38,34,62.43l8,0a.76.76,0,0,0,.74-.55l.87-2.41s0-.3,0-.31L34.1,59l.08-2.19L29,60.37Z" fill="#3ad35d" stroke="#231f20" stroke-miterlimit="10" stroke-width="0.5"/><path d="M39.56,59.09l-2.81-5.3,3.16-1.68,3.7,7s0,.11,0,.11Z" fill="#17a03a" stroke="#231f20" stroke-miterlimit="10" stroke-width="0.5"/></g></g></g></svg>