<svg xmlns="http://www.w3.org/2000/svg" width="78.57" height="72.26" viewBox="0 0 78.57 72.26"><g id="car"><g id="car-2" data-name="car"><path id="auto" d="M20.38,46.86H15.11a2.33,2.33,0,0,1-1.88-1l-.86-1.18a2.24,2.24,0,0,1-.43-1.32V38.22A4.81,4.81,0,0,1,13.2,35l.61-.67a2.32,2.32,0,0,1,1.73-.76h7.32a74,74,0,0,1,2.31-8.27c.91-2.07,5.13-5.87,6.28-6.2s18.77,0,18.77,0a9.33,9.33,0,0,1,5,3.64c1.66,2.73,2,10.18,2,10.18a26.37,26.37,0,0,1,4.3,1.47,6.51,6.51,0,0,1,2,2.24v7.6a1.72,1.72,0,0,1-.86,1.49l-1.59.9a1.89,1.89,0,0,1-.95.26H55.59a5.43,5.43,0,0,0-5.62-5,5.12,5.12,0,0,0-5.37,5H31s-.58-5.21-5.46-5.29S20.38,46.86,20.38,46.86Z" fill="#fc9b1a" stroke="#231f20" stroke-miterlimit="10" stroke-width="0.5"/><g id="charge"><path d="M63.53,44.21h4.29S61.25,72.61,35.33,72,.89,50.58.28,39.26s9.14-27.35,20.93-32c10-3.94,15.7-3.9,15.7-3.9" fill="none" stroke="#231f20" stroke-miterlimit="10" stroke-width="0.5"/><rect x="36.88" y="0.25" width="7.26" height="7.71" fill="#b6b4b5" stroke="#231f20" stroke-miterlimit="10" stroke-width="0.5"/><line x1="44.14" y1="2.34" x2="45.98" y2="2.34" fill="none" stroke="#231f20" stroke-miterlimit="10" stroke-width="0.5"/><line x1="44.14" y1="5.27" x2="45.98" y2="5.27" fill="none" stroke="#231f20" stroke-miterlimit="10" stroke-width="0.5"/></g><g id="wheels"><ellipse cx="25.67" cy="46.86" rx="5.29" ry="5.34" fill="#142314" stroke="#231f20" stroke-miterlimit="10" stroke-width="0.5"/><ellipse cx="50.1" cy="47.12" rx="5.5" ry="5.34" fill="#142314" stroke="#231f20" stroke-miterlimit="10" stroke-width="0.5"/><ellipse cx="25.67" cy="47.12" rx="2.82" ry="2.85" fill="#a7b5ce" stroke="#231f20" stroke-miterlimit="10" stroke-width="0.5"/><ellipse cx="50.1" cy="47.12" rx="2.82" ry="2.85" fill="#a7b5ce" stroke="#231f20" stroke-miterlimit="10" stroke-width="0.5"/></g><g id="windows"><path d="M27.74,34.45h12.1V22.28H31.63a17.58,17.58,0,0,0-2.57,5.21A48.87,48.87,0,0,0,27.74,34.45Z" fill="#19b8c4" stroke="#231f20" stroke-miterlimit="10" stroke-width="0.5"/><path d="M43.72,22.28V34.45H54.65a45.81,45.81,0,0,0-1.4-7,20.65,20.65,0,0,0-3.52-5.21Z" fill="#19b8c4" stroke="#231f20" stroke-miterlimit="10" stroke-width="0.5"/></g><g id="leaves"><path d="M63.26,20c2.92.17,11.11,1.2,12.9-4.77s2.11-7.8,2.11-7.8-7.18-.11-10.45,1.19-4.67,5.15-4.94,6.29S63.26,20,63.26,20Z" fill="#04a428" stroke="#231f20" stroke-miterlimit="10" stroke-width="0.5"/><line x1="73.39" y1="14.93" x2="68.62" y2="15.2" fill="#04a428" stroke="#231f20" stroke-miterlimit="10" stroke-width="0.5"/><path d="M63.26,20a18.31,18.31,0,0,1-.38-5.09,15.38,15.38,0,0,1,2.2-4.24A10.5,10.5,0,0,0,62,7.45a34.54,34.54,0,0,0-5.58-1.84s-.55,9.54,1.84,11.6a14.75,14.75,0,0,0,5,2.81S67.54,16,68.62,15.2s5.58-4.55,5.58-4.55" fill="#04a428" stroke="#231f20" stroke-miterlimit="10" stroke-width="0.5"/></g></g></g></svg>