<svg id="CO2" xmlns="http://www.w3.org/2000/svg" width="79.9" height="73.93" viewBox="0 0 79.9 73.93"><g id="CO2-2" data-name="CO2"><g id="arrow1"><path d="M.47,62.19,5,49.17s0,0,0,0c5.47,20.3,27,24.26,34.68,24.26,7.88,0,20.18-2.86,26.36-8.81" fill="none" stroke="#231f20" stroke-miterlimit="10"/><line x1="17.77" y1="52.79" x2="4.62" y2="48.59" fill="none" stroke="#231f20" stroke-miterlimit="10"/></g><g id="arrow"><path d="M79.42,11.74l-4.48,13h0C69.46,4.46,47.9.5,40.24.5,32.36.5,20.06,3.36,13.89,9.31" fill="none" stroke="#231f20" stroke-miterlimit="10"/><line x1="62.13" y1="21.14" x2="75.28" y2="25.34" fill="none" stroke="#231f20" stroke-miterlimit="10"/></g><path id="c" d="M34.11,29.29a7.54,7.54,0,0,0-5.81-3c-1.64.06-6.15,2.29-6.15,6.45A7.28,7.28,0,0,0,29,40.08c3.4.06,5.63-3.11,5.63-3.11" fill="none" stroke="#231f20" stroke-miterlimit="10"/><path id="O" d="M48.47,26.3a7,7,0,0,0-6.68,6.89,6.84,6.84,0,0,0,7,6.89,7.08,7.08,0,0,0,6.68-6.89A7.14,7.14,0,0,0,48.47,26.3Z" fill="none" stroke="#231f20" stroke-miterlimit="10"/><path id="_2" data-name="2" d="M53.63,45.65a3.07,3.07,0,0,1,2.93-1.76,2.76,2.76,0,0,1,2.41,3c-.12,1.64-4.81,6.57-4.81,6.57h5.57" fill="none" stroke="#231f20" stroke-miterlimit="10"/></g></svg>