<svg xmlns="http://www.w3.org/2000/svg" width="81.54" height="72.66" viewBox="0 0 81.54 72.66"><g id="hands"><g id="hands-2" data-name="hands"><path id="left" d="M26.56,72.37H38.09V49.82S37,46.68,32.33,45.37s-8.92-2.63-11-2.36-.79,3.14,0,3.93A20.07,20.07,0,0,0,25.25,49a41.35,41.35,0,0,1-7.34-1.32c-3.67-1-6-2.62-11-7.07S5.33,35.93,1.39,37.5s3.41,13.11,5,14.42,8.56,5.77,12.8,6.55a46.49,46.49,0,0,0,7.65.79Z" fill="#ffd697" stroke="#000" stroke-miterlimit="10" stroke-width="0.5"/><path id="right" d="M55,72.41H43.44V49.87s1.05-3.15,5.77-4.46,8.91-2.62,11-2.36.79,3.15,0,3.94a20.18,20.18,0,0,1-3.93,2.09,40.8,40.8,0,0,0,7.34-1.31c3.67-1.05,6-2.62,11-7.07s1.57-4.72,5.5-3.15-3.4,13.11-5,14.42-8.55,5.76-12.79,6.55a46.58,46.58,0,0,1-7.65.79Z" fill="#ffd697" stroke="#000" stroke-miterlimit="10" stroke-width="0.5"/><g id="leaves"><path d="M27.35,36.67c-5.88-3.61-13.64-11.75-14.42-22.24s0-14.15,0-14.15,15.73,2.1,21.49,6.81,10.75,8.92,10.75,17a56.68,56.68,0,0,1-1.73,14.16S31,38.91,27.35,36.67Z" fill="#009f1b" stroke="#000" stroke-miterlimit="10" stroke-width="0.5"/><path d="M20.27,10.24C23.68,14.17,33.9,27.54,37,30.42a50,50,0,0,1,6.4,7.87,50.07,50.07,0,0,0,8-1.62c5-1.35,10.49-4.94,13.11-9.13s3.67-16.25,3.67-16.25-8.39.52-14.16,3.41-8.91,9.43-8.91,9.43-.31,8.92-1.73,14.16" fill="#009f1b" stroke="#000" stroke-miterlimit="10" stroke-width="0.5"/><line x1="19.17" y1="19.32" x2="27.63" y2="19.32" fill="#009f1b" stroke="#000" stroke-miterlimit="10" stroke-width="0.5"/><line x1="35.73" y1="19.32" x2="34.38" y2="27.54" fill="#009f1b" stroke="#000" stroke-miterlimit="10" stroke-width="0.5"/><path d="M60.64,19.32s-7.61,8-10,10.32-7.24,8.65-7.24,8.65" fill="#009f1b" stroke="#000" stroke-miterlimit="10" stroke-width="0.5"/><line x1="62.37" y1="24.26" x2="55.9" y2="24.26" fill="#009f1b" stroke="#000" stroke-miterlimit="10" stroke-width="0.5"/><line x1="49.1" y1="23.43" x2="50.68" y2="29.64" fill="#009f1b" stroke="#000" stroke-miterlimit="10" stroke-width="0.5"/></g></g></g></svg>