<svg xmlns="http://www.w3.org/2000/svg" width="81.47" height="62.71" viewBox="0 0 81.47 62.71"><g id="house"><g id="house-2" data-name="house"><polygon id="home" points="1.47 30.24 40.72 0.63 79.97 30.24 66.58 30.24 66.58 62.21 15.34 62.21 15.31 30.4 1.47 30.24" fill="#eacd8a" stroke="#231f20" stroke-miterlimit="10"/><line id="straw" x1="40" y1="56.56" x2="40" y2="62.5" fill="#009f1b" stroke="#231f20" stroke-miterlimit="10" stroke-width="0.75"/><g id="leaves"><path d="M51.22,55.38c4.09-2.52,9.49-8.19,10-15.49s0-9.86,0-9.86-11,1.46-15,4.75S38.8,41,38.8,46.65A39.59,39.59,0,0,0,40,56.5S48.69,56.94,51.22,55.38Z" fill="#009f1b" stroke="#000" stroke-miterlimit="10" stroke-width="0.5"/><path d="M56.15,37C53.77,39.71,46.65,49,44.46,51A35.17,35.17,0,0,0,40,56.5a35.19,35.19,0,0,1-5.58-1.12A16.58,16.58,0,0,1,25.29,49C23.47,46.1,22.74,37.7,22.74,37.7s5.84.37,9.85,2.37,6.21,6.58,6.21,6.58A56.94,56.94,0,0,0,40,56.5" fill="#009f1b" stroke="#000" stroke-miterlimit="10" stroke-width="0.5"/><line x1="56.91" y1="43.3" x2="51.02" y2="43.3" fill="#009f1b" stroke="#000" stroke-miterlimit="10" stroke-width="0.5"/><line x1="45.37" y1="43.3" x2="46.32" y2="49.02" fill="#009f1b" stroke="#000" stroke-miterlimit="10" stroke-width="0.5"/><path d="M28,43.3s5.3,5.54,6.94,7.18,5,6,5,6" fill="#009f1b" stroke="#000" stroke-miterlimit="10" stroke-width="0.5"/><line x1="26.83" y1="46.74" x2="31.33" y2="46.74" fill="#009f1b" stroke="#000" stroke-miterlimit="10" stroke-width="0.5"/><line x1="36.06" y1="46.16" x2="34.97" y2="50.48" fill="#009f1b" stroke="#000" stroke-miterlimit="10" stroke-width="0.5"/></g></g></g></svg>