<?xml version="1.0" encoding="iso-8859-1"?>
<!-- Generator: Adobe Illustrator 19.0.0, SVG Export Plug-In . SVG Version: 6.00 Build 0)  -->
<svg version="1.1" id="Capa_1" xmlns="http://www.w3.org/2000/svg" xmlns:xlink="http://www.w3.org/1999/xlink" x="0px" y="0px"
	 viewBox="0 0 512 512" style="enable-background:new 0 0 512 512;" xml:space="preserve">
<path style="fill:#4CAF50;" d="M479.765,213.021c-9.493-7.317-20.245-15.552-22.293-22.08c-0.659-10.87,1.317-21.738,5.76-31.68
	c5.931-18.219,12.075-37.099,1.899-51.541s-30.912-16.064-50.859-17.451c-11.143,0.299-22.213-1.887-32.405-6.4
	c-6.932-8.211-11.816-17.95-14.251-28.416c-6.08-17.557-12.971-37.483-30.357-43.307c-16.725-5.675-33.835,5.056-50.368,15.424
	C277.826,34.627,267.254,39.496,256,41.8c-11.251-2.291-21.821-7.146-30.891-14.187c-16.533-10.347-33.643-21.077-50.347-15.424
	c-17.408,5.824-24.299,25.728-30.379,43.264c-2.432,10.48-7.316,20.233-14.251,28.459c-10.194,4.51-21.263,6.696-32.405,6.4
	c-19.968,1.387-40.533,2.837-50.88,17.451s-4.032,33.323,1.899,51.541c4.443,9.942,6.419,20.81,5.76,31.68
	c-2.133,6.528-12.8,14.763-22.293,22.059C16.384,225.181,0,237.768,0,255.986s16.384,30.784,32.235,42.965
	c9.493,7.317,20.245,15.552,22.293,22.08c0.659,10.87-1.317,21.738-5.76,31.68c-5.931,18.219-12.075,37.099-1.899,51.541
	c10.176,14.443,30.912,16.064,50.859,17.451c11.143-0.299,22.213,1.887,32.405,6.4c6.932,8.211,11.816,17.95,14.251,28.416
	c6.08,17.557,12.971,37.483,30.357,43.307c18.239,2.494,36.653-3.145,50.368-15.424c9.065-7.056,19.636-11.926,30.891-14.229
	c11.251,2.291,21.821,7.146,30.891,14.187c11.814,9.212,25.873,15.104,40.725,17.067c3.271,0.016,6.522-0.511,9.621-1.557
	c17.387-5.803,24.299-25.728,30.379-43.307c2.436-10.455,7.312-20.185,14.229-28.395c10.193-4.511,21.263-6.698,32.405-6.4
	c19.947-1.387,40.533-2.837,50.88-17.451s4.032-33.323-1.899-51.541c-4.443-9.942-6.419-20.81-5.76-31.68
	c2.133-6.528,12.8-14.763,22.293-22.059C495.616,286.792,512,274.205,512,255.986S495.616,225.202,479.765,213.021z"/>
<g>
	<path style="fill:#FAFAFA;" d="M181.333,201.672c5.891,0,10.667-4.776,10.667-10.667s-4.776-10.667-10.667-10.667h-64
		c-5.891,0-10.667,4.776-10.667,10.667v128c0,5.891,4.776,10.667,10.667,10.667h64c5.891,0,10.667-4.776,10.667-10.667
		s-4.776-10.667-10.667-10.667H128v-42.667h32c5.891,0,10.667-4.776,10.667-10.667c0-5.891-4.776-10.667-10.667-10.667h-32v-42.667
		H181.333z"/>
	<path style="fill:#FAFAFA;" d="M256,201.672c11.782,0,21.333,9.551,21.333,21.333c0,5.891,4.776,10.667,10.667,10.667
		c5.891,0,10.667-4.776,10.667-10.667c0-23.564-19.103-42.667-42.667-42.667s-42.667,19.103-42.667,42.667v64
		c0,23.564,19.103,42.667,42.667,42.667s42.667-19.103,42.667-42.667c0-5.891-4.776-10.667-10.667-10.667
		c-5.891,0-10.667,4.776-10.667,10.667c0,11.782-9.551,21.333-21.333,21.333c-11.782,0-21.333-9.551-21.333-21.333v-64
		C234.667,211.223,244.218,201.672,256,201.672z"/>
	<path style="fill:#FAFAFA;" d="M362.667,180.338c-23.564,0-42.667,19.103-42.667,42.667v64c0,23.564,19.103,42.667,42.667,42.667
		s42.667-19.103,42.667-42.667v-64C405.333,199.441,386.231,180.338,362.667,180.338z M384,287.005
		c0,11.782-9.551,21.333-21.333,21.333c-11.782,0-21.333-9.551-21.333-21.333v-64c0-11.782,9.551-21.333,21.333-21.333
		c11.782,0,21.333,9.551,21.333,21.333V287.005z"/>
</g>
<g>
</g>
<g>
</g>
<g>
</g>
<g>
</g>
<g>
</g>
<g>
</g>
<g>
</g>
<g>
</g>
<g>
</g>
<g>
</g>
<g>
</g>
<g>
</g>
<g>
</g>
<g>
</g>
<g>
</g>
</svg>
