<svg xmlns="http://www.w3.org/2000/svg" width="78.55" height="74.74" viewBox="0 0 78.55 74.74"><g id="plant"><g id="plant-2" data-name="plant"><path id="ground1" d="M20.31,35.26H57.53s-.16,15.5-16.93,15.5C20.31,50.76,20.31,35.26,20.31,35.26Z" fill="#d39545" stroke="#231f20" stroke-miterlimit="10"/><path id="ground" d="M20.31,54.11H.5V71.37s-.16,2.87,4,2.87H73.83s4-.48,4.15-2.87,0-17.26,0-17.26H57.53S56.32,70.54,39.28,70.25C20.31,69.93,20.31,54.11,20.31,54.11Z" fill="#d39543" stroke="#231f20" stroke-miterlimit="10"/><line id="straw" x1="39.28" y1="35.26" x2="39.28" y2="22.53" fill="#d09551" stroke="#391810" stroke-miterlimit="10"/><path d="M29.91,21.5c-3.42-2.11-7.94-6.86-8.4-13s0-8.25,0-8.25S30.68,1.5,34,4.25s6.27,5.2,6.27,9.93a33.06,33.06,0,0,1-1,8.26S32,22.8,29.91,21.5Z" fill="#009f1b" stroke="#000" stroke-miterlimit="10" stroke-width="0.5"/><path d="M25.79,6.09c2,2.29,7.94,10.08,9.78,11.76a29.27,29.27,0,0,1,3.73,4.59A30.62,30.62,0,0,0,44,21.5a13.81,13.81,0,0,0,7.64-5.33c1.53-2.44,2.14-9.47,2.14-9.47a25.49,25.49,0,0,0-8.25,2,13.27,13.27,0,0,0-5.19,5.5,47,47,0,0,1-1,8.26" fill="#009f1b" stroke="#000" stroke-miterlimit="10" stroke-width="0.5"/><line x1="25.15" y1="11.38" x2="30.08" y2="11.38" fill="#009f1b" stroke="#000" stroke-miterlimit="10" stroke-width="0.5"/><line x1="34.8" y1="11.38" x2="34.01" y2="16.17" fill="#009f1b" stroke="#000" stroke-miterlimit="10" stroke-width="0.5"/><path d="M49.32,11.38s-4.43,4.64-5.81,6-4.21,5.05-4.21,5.05" fill="#009f1b" stroke="#000" stroke-miterlimit="10" stroke-width="0.5"/><line x1="50.33" y1="14.26" x2="46.56" y2="14.26" fill="#009f1b" stroke="#000" stroke-miterlimit="10" stroke-width="0.5"/><line x1="42.6" y1="13.78" x2="43.51" y2="17.39" fill="#009f1b" stroke="#000" stroke-miterlimit="10" stroke-width="0.5"/></g></g></svg>