<svg xmlns="http://www.w3.org/2000/svg" width="80.33" height="80.35" viewBox="0 0 80.33 80.35"><g id="planet"><g id="planet-2" data-name="planet"><circle id="water" cx="40.16" cy="40.16" r="39.91" fill="#37b5e3" stroke="#000" stroke-miterlimit="10" stroke-width="0.5"/><g id="soil"><path d="M1.19,32.51c-.06,2.25,5-2.23,9.64-.17,2.45,1.08,3,5.64,3.08,9s1,6.88,3.69,7,4.52-3.08,4.52-6.67a6.45,6.45,0,0,1,4.51-6.56c2.67-1,7.08-2,7.39-3.45s-.72-4.86-2.67-6,1.64-4.31,3.8-5,8.41-2.15,9.74-4.41.31-4.51-2-5.64-2.56-1.54-4.1-1.34-2.16,2.06-3.28,2.26-5.13,0-6.77-1S24,3.68,24,3.68,15.43,7.42,10.4,13.57,1.32,27.63,1.19,32.51Z" fill="#b2ef4c" stroke="#000" stroke-miterlimit="10" stroke-width="0.5"/><path d="M29.79,78.72s1.56-5.15.74-6.07-5.13-.82-5.64-2.56,2.52-3.29,3-5.65-5.16-1.12-6.49-2.87-1.74-6.77,3-10.26,7.08-4.2,8.21-3,.72,4.92,2.57,6.36a43.07,43.07,0,0,0,9.43,4.82c2.16.62,4.93,1.54,5.24,4.21s.3,4.51-2.06,4.92-6.56-.51-7.18.41.41,4.92,0,6.77a24,24,0,0,0-.42,4.25S32.1,79.52,29.79,78.72Z" fill="#b2ef4c" stroke="#000" stroke-miterlimit="10" stroke-width="0.5"/><path d="M71.24,15.59c-1.87-1.18-5.83.13-6.55,2.9s-.21,8.1-2.15,8.82-8.21-.82-10.67,3.59S48.35,40.64,50,44.65s2.93,7.38,5.7,9,6.47,5.65,6.88,7.9S61.1,66,61.61,68.65a6.56,6.56,0,0,0,2,3.8s6.8-4.9,10.57-11.49c1.37-2.4.61-4.93-.62-5.44s-5.84-.1-6.15-2.77.92-6.87,5.13-7.08c3.52-.17,6.45-3.17,7.19-4.11a.91.91,0,0,0,.21-.63,38.63,38.63,0,0,0-2.23-14.49C76.12,22,72.87,16.62,71.24,15.59Z" fill="#b2ef4c" stroke="#000" stroke-miterlimit="10" stroke-width="0.5"/></g></g></g></svg>