<svg xmlns="http://www.w3.org/2000/svg" width="76.21" height="72.09" viewBox="0 0 76.21 72.09"><g id="recycle"><g id="recycle-2" data-name="recycle"><g id="up"><path d="M6.21,37.77l4.35,2.76L.73,59.19a2,2,0,0,0,.38,2.4l4.56,5c0,.06.68.41.72.35L18.58,45l5,2.9-2-16.58Z" fill="#3ad35d" stroke="#231f20" stroke-miterlimit="10"/><path d="M11.5,57.57H27.35V67H6.55S6.27,67,6.29,67Z" fill="#17a03a" stroke="#231f20" stroke-miterlimit="10"/></g><g id="down"><path d="M57.14,15.71l-4.39,2.67-12.42-17A2,2,0,0,0,38,.62L31.5,2.49c-.07,0-.67.43-.63.49L45.19,23.61l-4.8,3.22,15.75,5.54Z" fill="#3ad35d" stroke="#231f20" stroke-miterlimit="10"/><path d="M37,11.71l-7,14.23-8.5-4.18L30.72,3.1c0-.05.17-.24.2-.2Z" fill="#17a03a" stroke="#231f20" stroke-miterlimit="10"/></g><g id="left"><path d="M50,71.1l.4-5.13,21.09-.08a2,2,0,0,0,1.94-1.46l2.3-6.38c0-.07,0-.79,0-.8l-25.1-.47L50.76,51,37,60.53Z" fill="#3ad35d" stroke="#231f20" stroke-miterlimit="10"/><path d="M65,57.14l-7.44-14L65.9,38.7l9.75,18.36s.09.28,0,.28Z" fill="#17a03a" stroke="#231f20" stroke-miterlimit="10"/></g></g></g></svg>